# xmcd
#
# Track frame offsets:
#	150
#	15657
#	32233
#	47448
#	65373
#	82857
#	101341
#	119132
#	132038
#	144985
#	157932
#	175606
#	190273
#	209352
#	224318
#	241285
#	259700
#	260510
#	261403
#	262186
#	263213
#	264256
#	265171
#	266067
#	267283
#	268236
#	269108
#
# Disc length: 3596 seconds
#
# Revision: 1
# Processed by: cddbd v1.5.2PL0 Copyright (c) Steve Scherf et al.
# Submitted via: audiograbber 1.83.01
#
DISCID=990e0a1b
DTITLE=Various Artist - CDX 575
DYEAR=2013
DGENRE=Country
TTITLE0=Josh Thompson - Cold Beer With Your Name On It
TTITLE1=Bush Hawg - Crushin' (Single Edit)
TTITLE2=Colt Ford ft. Jason Aldean - Drivin_Around_Song
TTITLE3=Frankie Ballard - Helluva Life
TTITLE4=The Henningsens - I Miss You (Radio Edit)
TTITLE5=Blake Shelton - Mine Would Be You
TTITLE6=Ashton Shepherd - This Is America
TTITLE7=Kelly Clarkson - Tie It Up (Single Edit)
TTITLE8=Angel Mary and The Tennessee Werewolves - Folsom Prison Blues
TTITLE9=Angel Mary and The Tennessee Werewolves - Folsom Prison Blues (Alternate 
TTITLE9=Mature Lyrics)
TTITLE10=Zane Williams - Overnight_Success
TTITLE11=Due West - Slide On Over
TTITLE12=Joe Bachman - A Soldier's Memoir (PTSD Song)
TTITLE13=Lisa Matassa - I Won't Ask
TTITLE14=Alexandra Demetree ft. Wes Hayden - Lay It On Me
TTITLE15=Jolie Holliday - Waffle House
TTITLE16=Ronnie Dunn - Check Out My New Single (Liner)
TTITLE17=Ronnie Dunn - I hope you're about to listen to my new single (Liner)
TTITLE18=Ronnie Dunn - My New Song Kiss You There (Liner)
TTITLE19=Jacob Martin Band - Thanks for Hanging Out (Liner)
TTITLE20=Jacob Martin Band - You're Listening to Hometown Country (Liner)
TTITLE21=Jacob Martin Band - Today's Hot Country Music (Liner)
TTITLE22=Jacob Martin Band - Kickin' Country (Liner)
TTITLE23=Jacob Martin Band - Our New Single (Liner)
TTITLE24=Jacob Martin Band - Super Country (Liner)
TTITLE25=Jacob Martin Band - The Best In Country Music (Liner)
TTITLE26=Jacob Martin Band - Today's Best Country (Liner)
EXTD=
EXTT0=
EXTT1=
EXTT2=
EXTT3=
EXTT4=
EXTT5=
EXTT6=
EXTT7=
EXTT8=
EXTT9=
EXTT10=
EXTT11=
EXTT12=
EXTT13=
EXTT14=
EXTT15=
EXTT16=
EXTT17=
EXTT18=
EXTT19=
EXTT20=
EXTT21=
EXTT22=
EXTT23=
EXTT24=
EXTT25=
EXTT26=
PLAYORDER=
